<?xml version="1.0" encoding="UTF-8" standalone="no"?>
<!DOCTYPE svg PUBLIC "-//W3C//DTD SVG 1.1//EN" "http://www.w3.org/Graphics/SVG/1.1/DTD/svg11.dtd">
<svg width="100%" height="100%" viewBox="0 0 4267 4267" version="1.1" xmlns="http://www.w3.org/2000/svg" xmlns:xlink="http://www.w3.org/1999/xlink" xml:space="preserve" xmlns:serif="http://www.serif.com/" style="fill-rule:evenodd;clip-rule:evenodd;stroke-linecap:round;stroke-linejoin:round;stroke-miterlimit:1.5;">
    <g id="head" transform="matrix(4.166667,0,0,4.166667,0,0)">
        <rect x="0" y="0" width="1024" height="1024" style="fill:none;"/>
        <clipPath id="_clip1">
            <rect x="0" y="0" width="1024" height="1024"/>
        </clipPath>
        <g clip-path="url(#_clip1)">
            <g transform="matrix(1,0,0,1,1023.9999,372.9999)">
                <path d="M0,278C0,292.243 0.006,306.483 -0.084,320.726C-0.153,332.722 -0.291,344.716 -0.616,356.709C-1.325,382.843 -2.863,409.203 -7.508,435.047C-12.221,461.264 -19.912,485.664 -32.037,509.484C-43.954,532.897 -59.526,554.321 -78.102,572.898C-96.679,591.474 -118.103,607.046 -141.516,618.963C-165.336,631.088 -189.736,638.779 -215.953,643.492C-241.797,648.137 -268.157,649.675 -294.291,650.384C-306.284,650.709 -318.278,650.847 -330.274,650.916C-344.517,651.006 -358.757,651 -373,651L-651,651C-665.243,651 -679.483,651.006 -693.726,650.916C-705.722,650.847 -717.716,650.709 -729.709,650.384C-755.842,649.675 -782.203,648.137 -808.046,643.492C-834.264,638.779 -858.664,631.088 -882.484,618.963C-905.896,607.046 -927.321,591.474 -945.897,572.898C-964.474,554.321 -980.045,532.897 -991.963,509.484C-1004.087,485.664 -1011.779,461.264 -1016.491,435.047C-1021.137,409.203 -1022.675,382.843 -1023.383,356.709C-1023.709,344.716 -1023.847,332.722 -1023.916,320.726C-1024.006,306.483 -1024,292.243 -1024,278L-1024,0C-1024,-14.243 -1024.006,-28.483 -1023.916,-42.726C-1023.847,-54.722 -1023.709,-66.716 -1023.383,-78.709C-1022.675,-104.842 -1021.137,-131.203 -1016.491,-157.046C-1011.779,-183.264 -1004.087,-207.664 -991.963,-231.484C-980.045,-254.896 -964.474,-276.321 -945.897,-294.897C-927.321,-313.474 -905.896,-329.045 -882.484,-340.963C-858.664,-353.087 -834.264,-360.779 -808.046,-365.491C-782.203,-370.137 -755.842,-371.675 -729.709,-372.384C-717.716,-372.709 -705.722,-372.847 -693.726,-372.916C-679.483,-373.006 -665.243,-373 -651,-373L-373,-373C-358.757,-373 -344.517,-373.006 -330.274,-372.916C-318.278,-372.847 -306.284,-372.709 -294.291,-372.384C-268.157,-371.675 -241.797,-370.137 -215.953,-365.491C-189.736,-360.779 -165.336,-353.087 -141.516,-340.963C-118.103,-329.045 -96.679,-313.474 -78.102,-294.897C-59.526,-276.321 -43.954,-254.896 -32.037,-231.484C-19.912,-207.664 -12.221,-183.264 -7.508,-157.046C-2.863,-131.203 -1.325,-104.842 -0.616,-78.709C-0.291,-66.716 -0.153,-54.722 -0.084,-42.726C0.006,-28.483 0,-14.243 0,0L0,278Z" style="fill:white;fill-rule:nonzero;"/>
                <clipPath id="_clip2">
                    <path d="M0,278C0,292.243 0.006,306.483 -0.084,320.726C-0.153,332.722 -0.291,344.716 -0.616,356.709C-1.325,382.843 -2.863,409.203 -7.508,435.047C-12.221,461.264 -19.912,485.664 -32.037,509.484C-43.954,532.897 -59.526,554.321 -78.102,572.898C-96.679,591.474 -118.103,607.046 -141.516,618.963C-165.336,631.088 -189.736,638.779 -215.953,643.492C-241.797,648.137 -268.157,649.675 -294.291,650.384C-306.284,650.709 -318.278,650.847 -330.274,650.916C-344.517,651.006 -358.757,651 -373,651L-651,651C-665.243,651 -679.483,651.006 -693.726,650.916C-705.722,650.847 -717.716,650.709 -729.709,650.384C-755.842,649.675 -782.203,648.137 -808.046,643.492C-834.264,638.779 -858.664,631.088 -882.484,618.963C-905.896,607.046 -927.321,591.474 -945.897,572.898C-964.474,554.321 -980.045,532.897 -991.963,509.484C-1004.087,485.664 -1011.779,461.264 -1016.491,435.047C-1021.137,409.203 -1022.675,382.843 -1023.383,356.709C-1023.709,344.716 -1023.847,332.722 -1023.916,320.726C-1024.006,306.483 -1024,292.243 -1024,278L-1024,0C-1024,-14.243 -1024.006,-28.483 -1023.916,-42.726C-1023.847,-54.722 -1023.709,-66.716 -1023.383,-78.709C-1022.675,-104.842 -1021.137,-131.203 -1016.491,-157.046C-1011.779,-183.264 -1004.087,-207.664 -991.963,-231.484C-980.045,-254.896 -964.474,-276.321 -945.897,-294.897C-927.321,-313.474 -905.896,-329.045 -882.484,-340.963C-858.664,-353.087 -834.264,-360.779 -808.046,-365.491C-782.203,-370.137 -755.842,-371.675 -729.709,-372.384C-717.716,-372.709 -705.722,-372.847 -693.726,-372.916C-679.483,-373.006 -665.243,-373 -651,-373L-373,-373C-358.757,-373 -344.517,-373.006 -330.274,-372.916C-318.278,-372.847 -306.284,-372.709 -294.291,-372.384C-268.157,-371.675 -241.797,-370.137 -215.953,-365.491C-189.736,-360.779 -165.336,-353.087 -141.516,-340.963C-118.103,-329.045 -96.679,-313.474 -78.102,-294.897C-59.526,-276.321 -43.954,-254.896 -32.037,-231.484C-19.912,-207.664 -12.221,-183.264 -7.508,-157.046C-2.863,-131.203 -1.325,-104.842 -0.616,-78.709C-0.291,-66.716 -0.153,-54.722 -0.084,-42.726C0.006,-28.483 0,-14.243 0,0L0,278Z" clip-rule="nonzero"/>
                </clipPath>
                <g clip-path="url(#_clip2)">
                    <g id="_1---Layer" serif:id="1 – Layer">
                    </g>
                    <g id="_2---Layer" serif:id="2 – Layer" transform="matrix(1,0,0,1,-1023.9999,-372.9999)">
                        <g transform="matrix(0.24,0,0,0.24,-0,-0)">
                            <path d="M2687,3613C2616.918,3446.959 2610.503,3288.255 2609.599,3182.492" style="fill:none;stroke:black;stroke-width:104.17px;"/>
                        </g>
                        <g transform="matrix(-0.24,0,0,0.24,1271.183749,-0)">
                            <path d="M3716.932,3613C3646.85,3446.959 3640.435,3288.255 3639.531,3182.492" style="fill:none;stroke:black;stroke-width:104.17px;"/>
                        </g>
                        <g transform="matrix(0.247927,0,0,0.247927,-21.529281,24.473724)">
                            <path d="M1745.43,617.16C1827.598,466.464 1987.469,364.121 2171.056,364.121C2438.425,364.121 2655.495,581.191 2655.495,848.561C2655.495,886.31 2651.168,923.057 2642.983,958.332" style="fill:none;stroke:black;stroke-width:100.84px;"/>
                        </g>
                        <g transform="matrix(0.304821,0,0,0.288451,-113.19,-32.411974)">
                            <path d="M1667.449,1011.571C1645.532,978.657 1624.787,953.125 1624,903C1622.154,785.458 1724.371,690 1848,690C2015.199,690 2080.943,866.002 2236.05,931.973" style="fill:none;stroke:black;stroke-width:84.25px;"/>
                        </g>
                        <g transform="matrix(0.248958,0,0,0.233218,-19.109483,52.209675)">
                            <path d="M1302.678,2135.326C1234.287,2005.204 1195.579,1857.087 1195.579,1700C1195.579,1182.439 1615.772,762.246 2133.333,762.246C2650.894,762.246 3071.087,1182.439 3071.087,1700C3071.087,1878.098 3021.331,2044.667 2934.973,2186.552" style="fill:none;stroke:black;stroke-width:103.64px;"/>
                        </g>
                        <g transform="matrix(0.24,0,0,0.24,-0,-0)">
                            <path d="M1301.168,2294.944C1250.801,2282.356 1107.33,2314.451 1136,2445C1159.735,2553.078 1181.888,2740.618 1360.878,2702.732" style="fill:none;stroke:black;stroke-width:104.17px;"/>
                        </g>
                        <g transform="matrix(-0.24,0,0,0.24,598.350468,-0)">
                            <path d="M-472.372,2294.944C-522.739,2282.356 -666.21,2314.451 -637.54,2445C-613.804,2553.078 -591.652,2740.618 -412.661,2702.732" style="fill:none;stroke:black;stroke-width:104.17px;"/>
                        </g>
                        <g transform="matrix(0.24,0,0,0.24,-0,-0)">
                            <path d="M2623,1591C2623,1591 2520.418,1795.879 2008,1795C1495.582,1794.121 1290.975,2037.225 1300,2268C1314.448,2637.434 1387.388,2895.616 1593,3117C1775.87,3313.897 1933.581,3403 2133.333,3403C2333.086,3403 2490.797,3313.897 2673.667,3117C2879.278,2895.616 2952.219,2637.434 2966.667,2268C2973.887,2083.388 2846.366,1939.687 2736.039,1847.599C2599.432,1733.575 2623,1591 2623,1591Z" style="fill:none;stroke:black;stroke-width:104.17px;"/>
                        </g>
                    </g>
                    <g id="_3---Layer" serif:id="3 – Layer">
                    </g>
                    <g id="_4---Layer" serif:id="4 – Layer">
                    </g>
                </g>
            </g>
        </g>
    </g>
</svg>
